<svg xmlns="http://www.w3.org/2000/svg" xmlns:xlink="http://www.w3.org/1999/xlink" width="160" height="75" viewBox="0 0 160 75">
    <defs>
        <path id="g2fyrs00ha" d="M0 0.131L159.891 0.131 159.891 74.797 0 74.797z"/>
        <path id="jq5afldh9c" d="M0 74.472L160 74.472 160 0 0 0z"/>
    </defs>
    <g fill="none" fill-rule="evenodd">
        <g>
            <g>
                <g transform="translate(-167 -64) translate(-1) translate(168 64)">
                    <path fill="#008C50" d="M12.356 73.821c-6.275 0-11.38-5.12-11.38-11.414V12.39C.976 6.096 6.08.976 12.356.976h135.288c6.275 0 11.38 5.12 11.38 11.414v61.431H12.356z"/>
                    <g>
                        <mask id="1iim84p5sb" fill="#fff">
                            <use xlink:href="#g2fyrs00ha"/>
                        </mask>
                        <path fill="#FEFEFE" d="M147.584 1.992c5.772 0 10.451 4.69 10.451 10.478v60.466H12.307c-5.772 0-10.451-4.691-10.451-10.478V12.47c0-5.787 4.68-10.478 10.451-10.478h135.277zm0-1.86H12.307C5.521.131 0 5.666 0 12.47v49.988c0 6.804 5.521 12.339 12.307 12.339h147.584V12.47C159.89 5.667 154.37.13 147.584.13z" mask="url(#1iim84p5sb)"/>
                    </g>
                    <path fill="#FEFEFE" d="M128.78 20.488L134.249 20.488 142.439 31.546 136.979 31.546 141.076 37.073 134.247 37.073 130.146 31.548 132.878 31.548 128.782 26.015 132.875 26.015zM128.78 20.488L123.314 20.488 115.122 31.546 120.584 31.546 116.485 37.073 123.315 37.073 127.418 31.548 124.685 31.548 128.78 26.015 124.689 26.015z"/>
                    <mask id="xpipbgc6td" fill="#fff">
                        <use xlink:href="#jq5afldh9c"/>
                    </mask>
                    <path fill="#FEFEFE" d="M110.894 57.236L111.87 57.236 111.87 17.236 110.894 17.236zM23.23 21.463h-5.994v9.323c0 4.53 3.422 6.287 7.783 6.287 4.719 0 7.827-1.626 7.827-6.595v-9.015h-5.86v9.125c0 1.496-.335 2.528-1.9 2.528-1.43 0-1.857-1.1-1.857-2.55v-9.103zM34.472 37.073h5.527v-6.59c0-.658 0-1.56.988-1.56.966 0 .966.902.966 1.56v6.59h5.527v-7.95c0-2.22-1.075-3.757-4.014-3.757-1.558 0-3.072.637-3.73 2.24h-.044v-1.977h-5.22v11.444zM49.756 37.073h5.529V25.551h-5.529v11.522zm5.529-16.585h-5.529v3.847h5.529v-3.847zM56.91 37.073h5.616v-6.59c0-.658 0-1.56 1.002-1.56.98 0 .98.902.98 1.56v6.59h5.617v-6.59c0-.658 0-1.56.98-1.56 1.004 0 1.004.902 1.004 1.56v6.59h5.615V30.22c0-2.24 0-4.854-4.1-4.854-1.381 0-3.344.637-3.722 1.956h-.045c-.445-1.364-2.071-1.956-3.632-1.956-1.76 0-3.299.637-3.966 2.24h-.045v-1.977h-5.303v11.444zM84.225 29.964c-.067-.904.223-2.275 1.52-2.275 1.276 0 1.41 1.392 1.41 2.275h-2.93zm7.808 2.429v-.685c0-3.885-1.59-6.667-6.108-6.667-4.72 0-7.226 1.943-7.226 5.806 0 3.974 2.506 6.226 7.226 6.226 1.968 0 3.758-.2 5.257-.663v-2.98c-.894.464-2.282.73-3.825.73-1.657 0-3.02-.332-3.11-1.767h7.786zM106.992 37.133V20.488h-5.567v6.569h-.044c-.862-1.242-1.988-1.753-3.47-1.753-3.467 0-4.903 2.729-4.903 5.859 0 3.351 1.37 6.235 5.058 6.235 1.813 0 2.94-.642 3.712-2.374h.044v2.11h5.17zm-5.412-5.837c0 1.087-.177 2.375-1.371 2.375-1.214 0-1.413-1.288-1.413-2.508 0-1.198.199-2.397 1.37-2.397 1.237 0 1.414 1.199 1.414 2.53z" mask="url(#xpipbgc6td)"/>
                    <path fill="#FEFEFE" d="M17.236 40.976L142.439 40.976 142.439 40 17.236 40zM77.027 48.817l1.022.264c-.215.853-.6 1.505-1.156 1.953-.558.45-1.239.673-2.042.673-.833 0-1.51-.172-2.033-.518-.52-.343-.918-.843-1.19-1.498-.272-.654-.408-1.357-.408-2.107 0-.82.153-1.534.46-2.143.308-.61.746-1.073 1.313-1.39.567-.316 1.191-.474 1.873-.474.772 0 1.423.2 1.95.6.527.4.894.964 1.101 1.69l-1.007.241c-.179-.572-.438-.988-.78-1.25-.34-.26-.768-.39-1.285-.39-.594 0-1.09.144-1.489.434-.399.29-.679.678-.84 1.166-.162.488-.243.992-.243 1.51 0 .669.096 1.252.287 1.75.192.5.49.872.894 1.12.403.247.84.37 1.312.37.573 0 1.057-.169 1.455-.504.397-.336.665-.835.806-1.497M82.726 51.578v-.84c-.437.647-1.031.97-1.782.97-.331 0-.64-.064-.928-.195-.287-.128-.5-.291-.64-.486-.139-.197-.237-.437-.293-.721-.04-.19-.059-.492-.059-.906v-3.546h.952v3.174c0 .508.02.85.059 1.024.06.256.187.456.38.602.194.145.434.218.72.218.285 0 .553-.074.803-.223.25-.15.428-.353.532-.61.103-.256.155-.63.155-1.118v-3.067h.952v5.724h-.85zM85.203 51.707v-5.724h.822v.868c.21-.407.403-.675.58-.804.178-.13.374-.193.587-.193.307 0 .62.102.938.312l-.314.9c-.224-.141-.447-.21-.67-.21-.2 0-.379.063-.538.191-.159.127-.272.305-.34.531-.101.345-.152.722-.152 1.131v2.998h-.913zM88.78 45.005h1v-1.103h-1v1.103zm0 6.702v-5.653h1v5.653h-1zM93.203 50.802l.13.823c-.254.055-.482.082-.683.082-.328 0-.582-.053-.763-.16-.181-.106-.308-.247-.382-.421-.074-.174-.11-.54-.11-1.098v-3.159h-.663v-.723h.663v-1.36l.898-.558v1.918h.91v.723h-.91v3.21c0 .265.016.437.048.511.032.077.084.137.156.181.072.046.175.068.308.068.101 0 .233-.012.398-.037M93.984 45.005h1v-1.103h-1v1.103zm0 6.702v-5.653h1v5.653h-1zM97.47 51.582h-.885v-7.68h.954v2.74c.403-.5.916-.748 1.542-.748.345 0 .672.068.982.205.309.14.563.333.763.582.199.25.355.551.468.904.113.353.17.73.17 1.132 0 .953-.239 1.69-.715 2.21-.477.52-1.05.78-1.717.78-.664 0-1.184-.273-1.562-.821v.696zm-.01-2.823c0 .667.092 1.149.275 1.446.3.485.706.728 1.218.728.416 0 .777-.18 1.08-.537.304-.358.456-.891.456-1.601 0-.726-.145-1.261-.437-1.608-.292-.346-.644-.518-1.057-.518-.416 0-.776.179-1.08.536-.304.358-.456.877-.456 1.554zM106.126 50.89c-.355.298-.697.51-1.024.633-.33.122-.68.184-1.057.184-.62 0-1.097-.149-1.43-.45-.334-.301-.501-.685-.501-1.152 0-.274.063-.525.19-.752.125-.228.29-.408.494-.546.204-.136.433-.241.688-.312.189-.048.473-.096.852-.142.773-.09 1.342-.2 1.708-.326l.005-.248c0-.387-.09-.66-.272-.818-.244-.215-.608-.322-1.09-.322-.45 0-.783.078-.997.235-.215.157-.374.433-.477.83l-.936-.126c.086-.398.225-.719.42-.963.196-.244.477-.432.847-.564.368-.132.795-.197 1.281-.197.483 0 .875.056 1.176.167.301.113.523.254.665.426.141.17.241.386.298.645.032.163.048.453.048.876v1.266c0 .883.02 1.442.06 1.675.042.233.122.458.243.672h-1c-.1-.197-.164-.427-.191-.69zm-.08-2.12c-.348.141-.87.26-1.564.36-.394.055-.673.118-.836.189-.163.07-.289.172-.377.308-.09.135-.133.286-.133.45 0 .253.096.465.29.634.193.17.476.254.848.254.368 0 .697-.08.984-.24.288-.161.499-.38.633-.657.103-.215.155-.532.155-.95v-.349z" mask="url(#xpipbgc6td)"/>
                </g>
            </g>
        </g>
    </g>
</svg>
